{
	"asset":{
		"generator":"Khronos glTF Blender I/O v3.6.28",
		"version":"2.0"
	},
	"scene":0,
	"scenes":[
		{
			"name":"Scene",
			"nodes":[
				2
			]
		}
	],
	"nodes":[
		{
			"mesh":0,
			"name":"SledLuge.003",
			"scale":[
				0.14266307651996613,
				0.14266307651996613,
				0.14266307651996613
			],
			"translation":[
				2.220468521118164,
				0.14456209540367126,
				-1.0263581275939941
			]
		},
		{
			"mesh":1,
			"name":"SledLuge.004",
			"scale":[
				0.14266307651996613,
				0.14266307651996613,
				0.14266307651996613
			],
			"translation":[
				-1.4664782285690308,
				0.14456209540367126,
				-1.0263581275939941
			]
		},
		{
			"children":[
				0,
				1
			],
			"mesh":2,
			"name":"Bobsleigh",
			"scale":[
				1.5125768184661865,
				1.5125768184661865,
				1.5125768184661865
			]
		}
	],
	"materials":[
		{
			"doubleSided":true,
			"name":"Luge.006",
			"pbrMetallicRoughness":{
				"baseColorFactor":[
					0.02197759784758091,
					0.02197759784758091,
					0.02197759784758091,
					1
				],
				"metallicFactor":0,
				"roughnessFactor":0.5
			}
		},
		{
			"doubleSided":true,
			"name":"Luge.001",
			"pbrMetallicRoughness":{
				"baseColorFactor":[
					0.02197759784758091,
					0.02197759784758091,
					0.02197759784758091,
					1
				],
				"metallicFactor":0,
				"roughnessFactor":0.5
			}
		}
	],
	"meshes":[
		{
			"name":"Cube.093",
			"primitives":[
				{
					"attributes":{
						"POSITION":0,
						"NORMAL":1,
						"TEXCOORD_0":2
					},
					"indices":3,
					"material":0
				}
			]
		},
		{
			"name":"Cube.080",
			"primitives":[
				{
					"attributes":{
						"POSITION":4,
						"NORMAL":5,
						"TEXCOORD_0":6
					},
					"indices":3,
					"material":1
				}
			]
		},
		{
			"name":"Cube.081",
			"primitives":[
				{
					"attributes":{
						"POSITION":7,
						"NORMAL":8,
						"TEXCOORD_0":9
					},
					"indices":10,
					"material":1
				}
			]
		}
	],
	"accessors":[
		{
			"bufferView":0,
			"componentType":5126,
			"count":88,
			"max":[
				1,
				2.8372368812561035,
				64.6153335571289
			],
			"min":[
				0.038651108741760254,
				-1,
				-25.668031692504883
			],
			"type":"VEC3"
		},
		{
			"bufferView":1,
			"componentType":5126,
			"count":88,
			"type":"VEC3"
		},
		{
			"bufferView":2,
			"componentType":5126,
			"count":88,
			"type":"VEC2"
		},
		{
			"bufferView":3,
			"componentType":5123,
			"count":180,
			"type":"SCALAR"
		},
		{
			"bufferView":4,
			"componentType":5126,
			"count":88,
			"max":[
				1,
				2.8372368812561035,
				64.6153335571289
			],
			"min":[
				0.038651108741760254,
				-1,
				-25.668031692504883
			],
			"type":"VEC3"
		},
		{
			"bufferView":5,
			"componentType":5126,
			"count":88,
			"type":"VEC3"
		},
		{
			"bufferView":6,
			"componentType":5126,
			"count":88,
			"type":"VEC2"
		},
		{
			"bufferView":7,
			"componentType":5126,
			"count":106,
			"max":[
				2.5141799449920654,
				2.9752707481384277,
				11.83232307434082
			],
			"min":[
				-1.6538493633270264,
				0.49200499057769775,
				-5.411175727844238
			],
			"type":"VEC3"
		},
		{
			"bufferView":8,
			"componentType":5126,
			"count":106,
			"type":"VEC3"
		},
		{
			"bufferView":9,
			"componentType":5126,
			"count":106,
			"type":"VEC2"
		},
		{
			"bufferView":10,
			"componentType":5123,
			"count":276,
			"type":"SCALAR"
		}
	],
	"bufferViews":[
		{
			"buffer":0,
			"byteLength":1056,
			"byteOffset":0,
			"target":34962
		},
		{
			"buffer":0,
			"byteLength":1056,
			"byteOffset":1056,
			"target":34962
		},
		{
			"buffer":0,
			"byteLength":704,
			"byteOffset":2112,
			"target":34962
		},
		{
			"buffer":0,
			"byteLength":360,
			"byteOffset":2816,
			"target":34963
		},
		{
			"buffer":0,
			"byteLength":1056,
			"byteOffset":3176,
			"target":34962
		},
		{
			"buffer":0,
			"byteLength":1056,
			"byteOffset":4232,
			"target":34962
		},
		{
			"buffer":0,
			"byteLength":704,
			"byteOffset":5288,
			"target":34962
		},
		{
			"buffer":0,
			"byteLength":1272,
			"byteOffset":5992,
			"target":34962
		},
		{
			"buffer":0,
			"byteLength":1272,
			"byteOffset":7264,
			"target":34962
		},
		{
			"buffer":0,
			"byteLength":848,
			"byteOffset":8536,
			"target":34962
		},
		{
			"buffer":0,
			"byteLength":552,
			"byteOffset":9384,
			"target":34963
		}
	],
	"buffers":[
		{
			"byteLength":9936,
			"uri":"data:application/octet-stream;base64,"
		}
	]
}
