<?xml version="1.0" encoding="UTF-8" standalone="no"?>
<!-- Created with Inkscape (http://www.inkscape.org/) -->

<svg
   width="210mm"
   height="297mm"
   viewBox="0 0 210 297"
   version="1.1"
   id="svg1"
   inkscape:version="1.3 (0e150ed6c4, 2023-07-21)"
   sodipodi:docname="Biathlo_Target.svg"
   xmlns:inkscape="http://www.inkscape.org/namespaces/inkscape"
   xmlns:sodipodi="http://sodipodi.sourceforge.net/DTD/sodipodi-0.dtd"
   xmlns="http://www.w3.org/2000/svg"
   xmlns:svg="http://www.w3.org/2000/svg">
  <sodipodi:namedview
     id="namedview1"
     pagecolor="#ffffff"
     bordercolor="#000000"
     borderopacity="0.25"
     inkscape:showpageshadow="2"
     inkscape:pageopacity="0.0"
     inkscape:pagecheckerboard="0"
     inkscape:deskcolor="#d1d1d1"
     inkscape:document-units="mm"
     inkscape:zoom="0.80915585"
     inkscape:cx="414.01171"
     inkscape:cy="539.45109"
     inkscape:window-width="1920"
     inkscape:window-height="1009"
     inkscape:window-x="-8"
     inkscape:window-y="-8"
     inkscape:window-maximized="1"
     inkscape:current-layer="layer1" />
  <defs
     id="defs1" />
  <g
     inkscape:label="Layer 1"
     inkscape:groupmode="layer"
     id="layer1">
    <path
       id="rect6"
       style="display:inline;fill:#ff0000;fill-opacity:1;stroke:none;stroke-width:1.21281"
       d="m 96.42405,109.85827 v 4.3382 h -8.57594 v 4.28794 h -8.57579 v 4.28789 h -4.28805 v 8.57595 h -4.28789 v 8.57594 h -4.28789 v 8.57579 8.57594 h 4.28789 v 8.57595 h 4.28789 v 8.57578 h 4.28805 v 4.28806 h 8.57579 v 4.28789 h 8.57594 v 4.33813 H 105 h 8.57578 v -4.33813 h 8.57595 v -4.28789 h 8.57595 v -4.28806 h 4.28789 v -8.57578 h 4.28789 v -8.57595 h 4.28805 v -8.57594 -8.57579 h -4.28805 v -8.57594 h -4.28789 v -8.57595 h -4.28789 v -4.28789 h -8.57595 v -4.28794 h -8.57595 v -4.3382 H 105 Z m 1.49067,6.71667 H 105 h 7.08512 v 3.5844 h 7.08512 v 3.54256 h 7.08511 v 3.54272 h 3.54273 v 7.08512 h 3.54255 v 7.08512 h 3.54256 v 7.08512 7.08528 h -3.54256 v 7.08512 h -3.54255 v 7.08511 h -3.54273 v 3.54256 h -7.08511 v 3.54256 h -7.08512 v 3.58454 H 105 97.91472 v -3.58454 H 90.8296 v -3.54256 h -7.08512 v -3.54256 h -3.54256 v -7.08511 h -3.54255 v -7.08512 h -3.54273 v -7.08528 -7.08512 h 3.54273 v -7.08512 h 3.54255 v -7.08512 h 3.54256 v -3.54272 h 7.08512 v -3.54256 h 7.08512 z"
       inkscape:export-filename="target.png"
       inkscape:export-xdpi="96"
       inkscape:export-ydpi="96" />
    <rect
       style="fill:#ff0000;stroke:none;stroke-width:0.874286"
       id="rect1"
       width="28.606625"
       height="6.5870514"
       x="90.696686"
       y="145.20648" />
    <rect
       style="fill:#ff0000;stroke:none;stroke-width:0.773371"
       id="rect1-3"
       width="22.383881"
       height="6.5870514"
       x="129.22455"
       y="145.20648" />
    <rect
       style="fill:#ff0000;stroke:none;stroke-width:0.773371"
       id="rect1-3-2"
       width="22.383881"
       height="6.5870514"
       x="58.472923"
       y="145.20648" />
    <rect
       style="fill:#ff0000;stroke:none;stroke-width:0.773371"
       id="rect1-3-0"
       width="22.383881"
       height="6.5870514"
       x="172.68385"
       y="-108.33418"
       transform="rotate(90)" />
    <rect
       style="fill:#ff0000;stroke:none;stroke-width:0.773371"
       id="rect1-3-2-3"
       width="22.383881"
       height="6.5870514"
       x="101.93228"
       y="-108.33418"
       transform="rotate(90)" />
    <rect
       style="fill:#ff0000;stroke:none;stroke-width:0.874286"
       id="rect1-0"
       width="28.606625"
       height="6.5870514"
       x="134.1967"
       y="-108.29353"
       transform="rotate(90)" />
  </g>
</svg>
