<?xml version="1.0" encoding="UTF-8" standalone="no"?>
<!-- Created with Inkscape (http://www.inkscape.org/) -->

<svg
   width="500"
   height="500"
   viewBox="0 0 132.29166 132.29167"
   version="1.1"
   id="svg1"
   inkscape:version="1.3 (0e150ed6c4, 2023-07-21)"
   sodipodi:docname="FenceTexture.svg"
   xmlns:inkscape="http://www.inkscape.org/namespaces/inkscape"
   xmlns:sodipodi="http://sodipodi.sourceforge.net/DTD/sodipodi-0.dtd"
   xmlns="http://www.w3.org/2000/svg"
   xmlns:svg="http://www.w3.org/2000/svg">
  <sodipodi:namedview
     id="namedview1"
     pagecolor="#ffffff"
     bordercolor="#000000"
     borderopacity="0.25"
     inkscape:showpageshadow="2"
     inkscape:pageopacity="0.0"
     inkscape:pagecheckerboard="0"
     inkscape:deskcolor="#d1d1d1"
     inkscape:document-units="px"
     showgrid="true"
     inkscape:zoom="0.65462987"
     inkscape:cx="878.35894"
     inkscape:cy="585.82722"
     inkscape:window-width="1920"
     inkscape:window-height="1009"
     inkscape:window-x="-8"
     inkscape:window-y="50"
     inkscape:window-maximized="1"
     inkscape:current-layer="layer1">
    <sodipodi:guide
       position="0,132.29166"
       orientation="0,500"
       id="guide1"
       inkscape:locked="false" />
    <sodipodi:guide
       position="132.29166,132.29166"
       orientation="500,0"
       id="guide2"
       inkscape:locked="false" />
    <sodipodi:guide
       position="132.29166,0"
       orientation="0,-500"
       id="guide3"
       inkscape:locked="false" />
    <sodipodi:guide
       position="0,0"
       orientation="-500,0"
       id="guide4"
       inkscape:locked="false" />
    <inkscape:grid
       id="grid4"
       units="px"
       originx="0"
       originy="0"
       spacingx="0.26458332"
       spacingy="0.26458334"
       empcolor="#0099e5"
       empopacity="0.30196078"
       color="#0099e5"
       opacity="0.14901961"
       empspacing="5"
       dotted="false"
       gridanglex="30"
       gridanglez="30"
       visible="true" />
  </sodipodi:namedview>
  <defs
     id="defs1" />
  <g
     inkscape:label="Layer 1"
     inkscape:groupmode="layer"
     id="layer1">
    <path
       id="rect1"
       style="fill:#e74e07;stroke-width:0.0560705;fill-opacity:1"
       d="M 0 0 L 0 10.583333 L 0 47.624999 L 0 84.666666 L 0 121.70833 L 0 158.75 L 3.220992 158.75 L 10.583333 158.75 L 37.041666 158.75 L 45.554325 158.75 L 47.624999 158.75 L 74.083332 158.75 L 82.595991 158.75 L 84.666666 158.75 L 111.125 158.75 L 119.63766 158.75 L 121.70833 158.75 L 148.16666 158.75 L 156.67932 158.75 L 158.75 158.75 L 185.20833 158.75 L 193.72099 158.75 L 195.79166 158.75 L 222.25 158.75 L 230.76266 158.75 L 232.83333 158.75 L 259.29166 158.75 L 267.80432 158.75 L 269.875 158.75 L 296.33333 158.75 L 296.33333 148.16666 L 269.875 148.16666 L 269.875 121.70833 L 296.33333 121.70833 L 296.33333 111.125 L 269.875 111.125 L 269.875 84.666666 L 296.33333 84.666666 L 296.33333 74.083332 L 269.875 74.083332 L 269.875 47.624999 L 296.33333 47.624999 L 296.33333 37.041666 L 269.875 37.041666 L 269.875 10.583333 L 296.33333 10.583333 L 296.33333 0 L 269.875 0 L 264.58333 0 L 232.83333 0 L 227.54166 0 L 195.79166 0 L 190.5 0 L 158.75 0 L 153.45833 0 L 121.70833 0 L 116.41667 0 L 84.666666 0 L 79.374999 0 L 47.624999 0 L 42.333333 0 L 10.583333 0 L 0 0 z M 10.583333 10.583333 L 37.041666 10.583333 L 37.041666 37.041666 L 10.583333 37.041666 L 10.583333 10.583333 z M 47.624999 10.583333 L 74.083332 10.583333 L 74.083332 37.041666 L 47.624999 37.041666 L 47.624999 10.583333 z M 84.666666 10.583333 L 111.125 10.583333 L 111.125 37.041666 L 84.666666 37.041666 L 84.666666 10.583333 z M 121.70833 10.583333 L 148.16666 10.583333 L 148.16666 37.041666 L 121.70833 37.041666 L 121.70833 10.583333 z M 158.75 10.583333 L 185.20833 10.583333 L 185.20833 37.041666 L 158.75 37.041666 L 158.75 10.583333 z M 195.79166 10.583333 L 222.25 10.583333 L 222.25 37.041666 L 195.79166 37.041666 L 195.79166 10.583333 z M 232.83333 10.583333 L 259.29166 10.583333 L 259.29166 37.041666 L 232.83333 37.041666 L 232.83333 10.583333 z M 10.583333 47.624999 L 37.041666 47.624999 L 37.041666 74.083332 L 10.583333 74.083332 L 10.583333 47.624999 z M 47.624999 47.624999 L 74.083332 47.624999 L 74.083332 74.083332 L 47.624999 74.083332 L 47.624999 47.624999 z M 84.666666 47.624999 L 111.125 47.624999 L 111.125 74.083332 L 84.666666 74.083332 L 84.666666 47.624999 z M 121.70833 47.624999 L 148.16666 47.624999 L 148.16666 74.083332 L 121.70833 74.083332 L 121.70833 47.624999 z M 158.75 47.624999 L 185.20833 47.624999 L 185.20833 74.083332 L 158.75 74.083332 L 158.75 47.624999 z M 195.79166 47.624999 L 222.25 47.624999 L 222.25 74.083332 L 195.79166 74.083332 L 195.79166 47.624999 z M 232.83333 47.624999 L 259.29166 47.624999 L 259.29166 74.083332 L 232.83333 74.083332 L 232.83333 47.624999 z M 10.583333 84.666666 L 37.041666 84.666666 L 37.041666 111.125 L 10.583333 111.125 L 10.583333 84.666666 z M 47.624999 84.666666 L 74.083332 84.666666 L 74.083332 111.125 L 47.624999 111.125 L 47.624999 84.666666 z M 84.666666 84.666666 L 111.125 84.666666 L 111.125 111.125 L 84.666666 111.125 L 84.666666 84.666666 z M 121.70833 84.666666 L 148.16666 84.666666 L 148.16666 111.125 L 121.70833 111.125 L 121.70833 84.666666 z M 158.75 84.666666 L 185.20833 84.666666 L 185.20833 111.125 L 158.75 111.125 L 158.75 84.666666 z M 195.79166 84.666666 L 222.25 84.666666 L 222.25 111.125 L 195.79166 111.125 L 195.79166 84.666666 z M 232.83333 84.666666 L 259.29166 84.666666 L 259.29166 111.125 L 232.83333 111.125 L 232.83333 84.666666 z M 10.583333 121.70833 L 37.041666 121.70833 L 37.041666 148.16666 L 10.583333 148.16666 L 10.583333 121.70833 z M 47.624999 121.70833 L 74.083332 121.70833 L 74.083332 148.16666 L 47.624999 148.16666 L 47.624999 121.70833 z M 84.666666 121.70833 L 111.125 121.70833 L 111.125 148.16666 L 84.666666 148.16666 L 84.666666 121.70833 z M 121.70833 121.70833 L 148.16666 121.70833 L 148.16666 148.16666 L 121.70833 148.16666 L 121.70833 121.70833 z M 158.75 121.70833 L 185.20833 121.70833 L 185.20833 148.16666 L 158.75 148.16666 L 158.75 121.70833 z M 195.79166 121.70833 L 222.25 121.70833 L 222.25 148.16666 L 195.79166 148.16666 L 195.79166 121.70833 z M 232.83333 121.70833 L 259.29166 121.70833 L 259.29166 148.16666 L 232.83333 148.16666 L 232.83333 121.70833 z "
       inkscape:export-filename="DownhillFence.png"
       inkscape:export-xdpi="96"
       inkscape:export-ydpi="96" />
    <rect
       style="fill:#d40000;fill-opacity:1;stroke-width:0.0528638"
       id="rect2"
       width="52.916664"
       height="52.916664"
       x="169.33333"
       y="174.625"
       inkscape:export-filename="..\..\..\Prod\Art\3d\SkiTrack_DownhillStart.png"
       inkscape:export-xdpi="96"
       inkscape:export-ydpi="96" />
    <rect
       style="fill:#0d4d9d;fill-opacity:1;stroke-width:0.0528638"
       id="rect2-1"
       width="52.916664"
       height="52.916664"
       x="238.125"
       y="174.625"
       inkscape:export-filename="DownhillFinish.png"
       inkscape:export-xdpi="96"
       inkscape:export-ydpi="96" />
  </g>
</svg>
