<?xml version="1.0" encoding="UTF-8" standalone="no"?>
<!-- Created with Inkscape (http://www.inkscape.org/) -->

<svg
   width="210mm"
   height="297mm"
   viewBox="0 0 210 297"
   version="1.1"
   id="svg1"
   inkscape:version="1.3 (0e150ed6c4, 2023-07-21)"
   sodipodi:docname="SpeedArrow.svg"
   inkscape:export-filename="..\..\..\Prod\Art\3d\ArrowHitBox.png"
   inkscape:export-xdpi="1527.2592"
   inkscape:export-ydpi="1527.2592"
   xmlns:inkscape="http://www.inkscape.org/namespaces/inkscape"
   xmlns:sodipodi="http://sodipodi.sourceforge.net/DTD/sodipodi-0.dtd"
   xmlns="http://www.w3.org/2000/svg"
   xmlns:svg="http://www.w3.org/2000/svg">
  <sodipodi:namedview
     id="namedview1"
     pagecolor="#ffffff"
     bordercolor="#000000"
     borderopacity="0.25"
     inkscape:showpageshadow="2"
     inkscape:pageopacity="0.0"
     inkscape:pagecheckerboard="0"
     inkscape:deskcolor="#d1d1d1"
     inkscape:document-units="mm"
     inkscape:zoom="2.0485264"
     inkscape:cx="371.9747"
     inkscape:cy="634.84658"
     inkscape:window-width="1920"
     inkscape:window-height="1009"
     inkscape:window-x="-8"
     inkscape:window-y="-8"
     inkscape:window-maximized="1"
     inkscape:current-layer="layer1" />
  <defs
     id="defs1" />
  <g
     inkscape:label="Layer 1"
     inkscape:groupmode="layer"
     id="layer1">
    <rect
       style="fill:#800000;stroke-width:1.32777;fill-opacity:0"
       id="rect2"
       width="35"
       height="35"
       x="103.01394"
       y="148.11113" />
    <path
       id="rect80-0-1-0-8-0-7-8-2-1-1-1"
       style="display:inline;fill:#bc002d;fill-opacity:1;stroke:none;stroke-width:0.301354"
       d="m 103.41072,79.569025 v 12.76801 h -0.002 v 12.858025 h 1.88878 v -0.82 h 1.72672 v -0.81835 h 1.68582 v -0.81672 h 1.73166 v -0.84455 h 1.65963 v -0.81508 h 1.85603 v -0.81345 h 1.45338 v -0.813443 h 1.78404 v -0.81181 h 1.54995 v -0.808538 h 1.6989 v -0.806901 h 1.63347 v -0.803626 h 1.61868 v -0.800354 h 1.63838 v -0.793804 h 1.62853 v -0.78726 h 1.4976 v -0.770893 h 1.70381 v -0.643227 h 0.002 v -0.73325 h -1.70382 v -0.770893 h -1.49759 v -0.787257 h -1.62853 v -0.793807 h -1.63835 v -0.800354 h -1.61871 v -0.803626 h -1.63344 v -0.806901 h -1.6989 v -0.808538 h -1.54998 v -0.81181 h -1.78401 v -0.813444 h -1.45342 v -0.813448 h -1.85646 v -0.815084 h -1.65963 v -0.844544 h -1.73162 v -0.816722 h -1.68583 v -0.818357 h -1.72674 v -0.819994 z" />
    <path
       id="rect6"
       style="display:inline;fill:#bc002d;fill-opacity:1;stroke-width:0.639246"
       d="m 51.898327,68.678678 v 2.286682 h -4.52014 v 2.25981 h -4.520133 v 2.260327 h -2.260327 v 4.520138 h -2.25981 v 4.520141 H 36.07759 v 4.52013 4.52014 h 2.260327 v 4.52014 h 2.25981 v 4.520144 h 2.260327 v 2.25981 h 4.520133 v 2.26032 h 4.52014 v 2.28669 h 4.52014 4.52014 v -2.28669 h 4.52014 v -2.26032 h 4.52013 v -2.25981 h 2.26033 v -4.520144 h 2.25981 v -4.52014 h 2.26033 v -4.52014 -4.52013 h -2.26033 v -4.520141 h -2.25981 v -4.520138 h -2.26033 V 73.22517 h -4.52013 v -2.25981 h -4.52014 v -2.286682 h -4.52014 z" />
    <path
       id="rect6-7"
       style="display:inline;fill:#ececec;fill-opacity:1;stroke-width:0.495642"
       d="m 52.913757,73.254091 v 1.772989 h -3.50471 v 1.752154 h -3.50471 v 1.752554 h -1.75255 v 3.504707 h -1.752153 v 3.504721 h -1.752553 v 3.50469 3.50472 h 1.752553 v 3.5047 h 1.752153 v 3.50471 h 1.75255 v 1.752154 h 3.50471 v 1.75255 h 3.50471 v 1.773 h 3.50471 3.50471 v -1.773 h 3.50471 v -1.75255 h 3.5047 v -1.752154 h 1.75256 v -3.50471 h 1.75215 v -3.5047 h 1.75256 v -3.50472 -3.50469 h -1.75256 v -3.504721 h -1.75215 v -3.504707 h -1.75256 v -1.752554 h -3.5047 V 75.02708 h -3.50471 v -1.772989 h -3.50471 z" />
    <rect
       style="fill:#bc002d;fill-opacity:1;stroke:none;stroke-width:4.00947"
       id="rect1"
       width="15.668639"
       height="13.284669"
       x="89.33136"
       y="85.739708" />
    <path
       id="rect80-0-1-0-8-0-7-8-2-1-1-1-7"
       style="display:inline;fill:#f9f9f9;fill-opacity:1;stroke:none;stroke-width:0.215035"
       d="m 115.99153,156.46813 v 4.40317 h -10.04642 v 9.47966 h 10.04495 v 4.40317 h 1.34776 v -0.5852 h 1.23233 v -0.58409 h 1.20285 v -0.58261 h 1.23566 v -0.60253 h 1.1844 v -0.58188 h 1.32416 v -0.5804 h 1.03728 v -0.5804 h 1.2729 v -0.5793 h 1.10587 V 169.501 h 1.21242 v -0.57597 h 1.1656 v -0.5734 h 1.15491 v -0.57118 h 1.16929 v -0.56639 h 1.16191 v -0.5616 h 1.06861 v -0.55016 h 1.21576 v -0.45909 h 0.001 v -0.52325 h -1.21575 v -0.5498 h -1.06862 v -0.56196 h -1.16191 v -0.56639 h -1.16929 v -0.57118 h -1.1549 v -0.5734 h -1.1656 v -0.57561 h -1.21243 v -0.57709 h -1.10586 v -0.57929 h -1.2729 v -0.5804 h -1.03728 v -0.58041 h -1.32406 v -0.58151 h -1.18441 v -0.60289 h -1.23565 v -0.58261 h -1.20285 v -0.5841 h -1.23234 v -0.58519 z"
       inkscape:export-filename="ArrowHitBox.png"
       inkscape:export-xdpi="1527.2592"
       inkscape:export-ydpi="1527.2592" />
    <path
       id="rect6-6"
       style="display:inline;fill:#f9f9f9;fill-opacity:1;stroke-width:0.639246"
       d="M 59.732788 141.5774 L 59.732788 143.86409 L 55.212651 143.86409 L 55.212651 146.1239 L 50.692513 146.1239 L 50.692513 148.38422 L 48.432186 148.38422 L 48.432186 152.90436 L 46.172375 152.90436 L 46.172375 157.4245 L 43.912048 157.4245 L 43.912048 161.94464 L 43.912048 166.46477 L 46.172375 166.46477 L 46.172375 170.98491 L 48.432186 170.98491 L 48.432186 175.50505 L 50.692513 175.50505 L 50.692513 177.76486 L 55.212651 177.76486 L 55.212651 180.02519 L 59.732788 180.02519 L 59.732788 182.31187 L 64.252926 182.31187 L 68.773063 182.31187 L 68.773063 180.02519 L 73.293201 180.02519 L 73.293201 177.76486 L 77.813338 177.76486 L 77.813338 175.50505 L 80.073665 175.50505 L 80.073665 170.98491 L 82.333476 170.98491 L 82.333476 166.46477 L 84.593803 166.46477 L 84.593803 161.94464 L 84.593803 157.4245 L 82.333476 157.4245 L 82.333476 152.90436 L 80.073665 152.90436 L 80.073665 148.38422 L 77.813338 148.38422 L 77.813338 146.1239 L 73.293201 146.1239 L 73.293201 143.86409 L 68.773063 143.86409 L 68.773063 141.5774 L 64.252926 141.5774 L 59.732788 141.5774 z M 60.74823 146.15284 L 64.252926 146.15284 L 67.757621 146.15284 L 67.757621 147.92585 L 71.262317 147.92585 L 71.262317 149.6782 L 74.767013 149.6782 L 74.767013 151.43055 L 76.51936 151.43055 L 76.51936 154.93525 L 78.271708 154.93525 L 78.271708 158.43994 L 80.024056 158.43994 L 80.024056 161.94464 L 80.024056 165.44933 L 78.271708 165.44933 L 78.271708 168.95403 L 76.51936 168.95403 L 76.51936 172.45872 L 74.767013 172.45872 L 74.767013 174.21107 L 71.262317 174.21107 L 71.262317 175.96342 L 67.757621 175.96342 L 67.757621 177.73644 L 64.252926 177.73644 L 60.74823 177.73644 L 60.74823 175.96342 L 57.243534 175.96342 L 57.243534 174.21107 L 53.738839 174.21107 L 53.738839 172.45872 L 51.985974 172.45872 L 51.985974 168.95403 L 50.234143 168.95403 L 50.234143 165.44933 L 48.481278 165.44933 L 48.481278 161.94464 L 48.481278 158.43994 L 50.234143 158.43994 L 50.234143 154.93525 L 51.985974 154.93525 L 51.985974 151.43055 L 53.738839 151.43055 L 53.738839 149.6782 L 57.243534 149.6782 L 57.243534 147.92585 L 60.74823 147.92585 L 60.74823 146.15284 z "
       inkscape:export-filename="PlayerHitBox.png"
       inkscape:export-xdpi="1527.2592"
       inkscape:export-ydpi="1527.2592" />
  </g>
</svg>
