<?xml version="1.0" encoding="UTF-8" standalone="no"?>
<!-- Created with Inkscape (http://www.inkscape.org/) -->

<svg
   width="500"
   height="500"
   viewBox="0 0 132.29166 132.29167"
   version="1.1"
   id="svg1"
   inkscape:version="1.3 (0e150ed6c4, 2023-07-21)"
   sodipodi:docname="TreeSnow.svg"
   inkscape:export-filename="TreeSnow.png"
   inkscape:export-xdpi="96"
   inkscape:export-ydpi="96"
   xmlns:inkscape="http://www.inkscape.org/namespaces/inkscape"
   xmlns:sodipodi="http://sodipodi.sourceforge.net/DTD/sodipodi-0.dtd"
   xmlns="http://www.w3.org/2000/svg"
   xmlns:svg="http://www.w3.org/2000/svg">
  <sodipodi:namedview
     id="namedview1"
     pagecolor="#ffffff"
     bordercolor="#000000"
     borderopacity="0.25"
     inkscape:showpageshadow="2"
     inkscape:pageopacity="0.0"
     inkscape:pagecheckerboard="0"
     inkscape:deskcolor="#d1d1d1"
     inkscape:document-units="px"
     showgrid="true"
     inkscape:zoom="0.45632618"
     inkscape:cx="175.31319"
     inkscape:cy="-7.6699522"
     inkscape:window-width="1920"
     inkscape:window-height="1009"
     inkscape:window-x="-8"
     inkscape:window-y="50"
     inkscape:window-maximized="1"
     inkscape:current-layer="layer1">
    <inkscape:grid
       id="grid1"
       units="mm"
       originx="0"
       originy="0"
       spacingx="0.99999995"
       spacingy="1"
       empcolor="#0099e5"
       empopacity="0.30196078"
       color="#0099e5"
       opacity="0.14901961"
       empspacing="5"
       dotted="false"
       gridanglex="30"
       gridanglez="30"
       visible="true" />
  </sodipodi:namedview>
  <defs
     id="defs1" />
  <g
     inkscape:label="Layer 1"
     inkscape:groupmode="layer"
     id="layer1">
    <rect
       style="display:inline;fill:#0000ff;fill-opacity:1;stroke:#bbe6e6;stroke-width:0.132292;stroke-dasharray:none"
       id="rect4"
       width="274.38367"
       height="219.73114"
       x="-69.729828"
       y="-53.537167" />
    <path
       id="rect1"
       style="fill:#c6e6e6;fill-opacity:1;stroke:#c6e6e6;stroke-width:1.158;stroke-dasharray:none"
       d="m -15.896413,150.58785 v 5.00022 h 81.166621 80.463822 v -5.00022 H 65.270208 Z m -4.992977,5.00693 v 4.98575 h 85.456798 0.7028 85.456802 v -4.98575 h -85.456802 -0.7028 z"
       inkscape:export-filename="tree.png"
       inkscape:export-xdpi="96"
       inkscape:export-ydpi="96" />
    <path
       id="rect3"
       style="fill:#398431;fill-opacity:1;stroke:#398431;stroke-width:1.158;stroke-dasharray:none"
       d="m -10.888452,145.59591 v 4.98368 h 75.45586 0.7028 75.455342 v -4.98368 h -75.455342 -0.7028 z" />
    <path
       id="rect3-2"
       style="fill:#006000;fill-opacity:1;stroke:#006000;stroke-width:1.158;stroke-dasharray:none"
       d="m -0.8363524,135.45803 v 5.00589 H 65.270208 130.67345 v -5.00589 H 65.270208 Z m -5.05137,5.13819 v 4.98315 h 70.4551304 0.7028 70.455132 v -4.98315 h -70.455132 -0.7028 z" />
    <path
       id="rect1-8"
       style="fill:#c6e6e6;fill-opacity:1;stroke:#c6e6e6;stroke-width:1.158;stroke-dasharray:none"
       d="m -0.3795324,125.65398 v 5.00021 h -4.99969 v 4.99969 H 65.270208 135.21685 v -4.99969 h -5.00022 v -5.00021 h -64.946422 -0.7028 z" />
    <path
       id="rect3-3"
       style="fill:#398431;fill-opacity:1;stroke:#398431;stroke-width:1.158;stroke-dasharray:none"
       d="m 4.6211976,120.65428 v 4.99918 h 60.0123604 0.56999 60.012872 v -4.99918 h -60.012872 -0.56999 z" />
    <path
       id="rect3-2-9"
       style="fill:#006000;fill-opacity:1;stroke:#006000;stroke-width:1.158;stroke-dasharray:none"
       d="m 14.681568,110.52467 v 5.00538 h 49.9463 0.58136 49.946822 v -5.00538 h -49.946822 -0.58136 z m -5.0606804,5.1294 v 4.99969 H 65.206648 120.21621 v -4.99969 H 65.206648 Z" />
    <path
       id="rect1-9"
       style="fill:#c6e6e6;fill-opacity:1;stroke:#c6e6e6;stroke-width:1.158;stroke-dasharray:none"
       d="m 15.195748,100.51908 v 5.00848 h -4.99195 v 4.99969 h 54.36361 0.7028 54.363092 v -4.99969 h -4.99194 v -5.00848 H 65.211818 Z" />
    <path
       id="rect3-4"
       style="fill:#398431;fill-opacity:1;stroke:#398431;stroke-width:1.158;stroke-dasharray:none"
       d="m 20.204228,95.527127 v 5.000213 h 44.36318 0.7028 44.363182 v -5.000213 h -44.363182 -0.7028 z" />
    <path
       id="rect3-2-1"
       style="fill:#006000;fill-opacity:1;stroke:#006000;stroke-width:1.158;stroke-dasharray:none"
       d="m 30.254778,85.387697 v 5.02553 h 34.96479 34.36328 v -5.02553 h -34.36328 z m -5.06016,5.13044 v 5.01829 h 39.42653 0.5948 39.426532 v -5.01829 h -39.426532 -0.5948 z" />
    <path
       id="rect1-8-1"
       style="fill:#c6e6e6;fill-opacity:1;stroke:#c6e6e6;stroke-width:1.158;stroke-dasharray:none"
       d="m 25.415278,75.578997 v 5.00124 h -4.99866 v 5.02657 h 44.2035 0.59686 44.204022 v -5.02657 h -4.99866 v -5.00124 H 65.218018 Z" />
    <path
       id="rect3-3-3"
       style="fill:#398431;fill-opacity:1;stroke:#398431;stroke-width:1.158;stroke-dasharray:none"
       d="m 30.429438,70.593247 v 5.00022 h 34.13797 0.7028 34.13745 v -5.00022 h -34.13745 -0.7028 z" />
    <path
       id="rect3-2-9-0"
       style="fill:#006000;fill-opacity:1;stroke:#006000;stroke-width:1.158;stroke-dasharray:none"
       d="m 40.472238,60.446067 v 5.04155 h 24.75508 24.13806 v -5.04155 h -24.13806 z m -5.04258,5.14749 v 4.99969 h 29.13775 0.7028 29.13776 v -4.99969 h -29.13776 -0.7028 z" />
    <path
       id="rect1-0"
       style="fill:#c6e6e6;fill-opacity:1;stroke:#c6e6e6;stroke-width:1.158;stroke-dasharray:none"
       d="m 30.429438,50.337127 v 4.98419 h -5.01623 v 5.03225 h 39.20433 0.60254 39.203812 v -5.03225 h -5.016232 v -4.98419 h -34.13745 z" />
    <path
       id="rect3-24"
       style="fill:#398431;fill-opacity:1;stroke:#398431;stroke-width:1.158;stroke-dasharray:none"
       d="m 35.410018,45.317787 v 5.03897 h 29.2039 0.60927 29.2039 v -5.03897 h -29.2039 -0.60927 z" />
    <path
       id="rect3-2-8"
       style="fill:#006000;fill-opacity:1;stroke:#006000;stroke-width:1.158;stroke-dasharray:none"
       d="m 45.467798,35.185597 v 5.05033 h 19.76417 19.13785 v -5.05033 h -19.13785 z m -5.0586,5.13095 v 5.04155 h 24.20059 0.61753 24.20111 v -5.04155 h -24.20111 -0.61753 z" />
    <path
       id="rect1-8-7"
       style="fill:#c6e6e6;fill-opacity:1;stroke:#c6e6e6;stroke-width:1.158;stroke-dasharray:none"
       d="m 35.342318,25.382577 v 5.02088 h -4.97902 v 5.00021 h 34.20411 0.7028 34.2036 v -5.00021 h -4.97851 v -5.02088 h -29.27005 z" />
    <path
       id="rect3-3-4"
       style="fill:#398431;fill-opacity:1;stroke:#398431;stroke-width:1.158;stroke-dasharray:none"
       d="m 40.339948,20.380297 v 5.04672 h 24.27035 0.61702 24.26984 v -5.04672 h -24.26984 -0.61702 z" />
    <path
       id="rect3-2-9-3"
       style="fill:#006000;fill-opacity:1;stroke:#006000;stroke-width:1.158;stroke-dasharray:none"
       d="m 50.396698,10.246547 v 5.06067 h 14.84044 14.20378 v -5.06067 h -14.20378 z m -5.03328,5.15679 v 5.00021 h 19.20399 0.7028 19.204 v -5.00021 h -19.204 -0.7028 z" />
    <path
       id="rect1-9-3"
       style="fill:#bbe6e6;fill-opacity:1;stroke:#bbe6e6;stroke-width:1.158;stroke-dasharray:none"
       d="M 40.359588,0.27299516 V 5.2540872 h -5.01882 v 5.0456898 h 29.27005 0.61598 29.27005 V 5.2540872 h -5.01881 V 0.27299516 h -24.24865 z" />
    <path
       id="rect3-4-3"
       style="fill:#398431;fill-opacity:1;stroke:#398431;stroke-width:1.158;stroke-dasharray:none"
       d="m 45.358758,-4.7277328 v 5.00899596 h 19.24689 0.62632 19.24637 V -4.7277328 h -19.24637 -0.62632 z" />
    <path
       id="rect3-2-1-1"
       style="fill:#006000;fill-opacity:1;stroke:#006000;stroke-width:1.158;stroke-dasharray:none"
       d="m 55.396398,-14.880085 v 5.0606732 h 9.87381 9.1705 v -5.0606732 h -9.1705 z m -5.05809,5.1319862 v 5.049821 h 14.2291 0.7028 14.22911 v -5.049821 h -14.22911 -0.7028 z" />
    <path
       id="rect1-8-1-8"
       style="fill:#bbe6e6;fill-opacity:1;stroke:#bbe6e6;stroke-width:1.158;stroke-dasharray:none"
       d="m 60.233828,-39.385049 v 9.973034 h -4.96353 v 4.999695 h -5.00021 v 4.969723 h -5.0307 v 5.061189 h 19.99516 19.36316 v -5.061189 h -5.03018 v -4.969723 h -5.00021 v -4.999695 h -4.96352 v -9.973034 h -4.36046 -0.64906 z" />
  </g>
</svg>
